<svg preserveAspectRatio="none" overflow="visible" style="display: block;" width="250" height="34.0909" viewBox="0 0 250 34.0909" fill="none" xmlns="http://www.w3.org/2000/svg">
<g id="Legado">
<path id="Vector" d="M237.705 16.9397C237.705 18.2236 237.886 19.3296 238.239 20.2604C238.596 21.1943 239.142 21.912 239.882 22.4199C240.618 22.9276 241.556 23.1815 242.701 23.1815C243.846 23.1815 244.802 22.9276 245.535 22.4199C246.269 21.912 246.809 21.1942 247.154 20.2604C247.496 19.3297 247.669 18.2236 247.669 16.9397C247.669 14.9991 247.274 13.4788 246.482 12.3816C245.69 11.2873 244.44 10.7387 242.728 10.7387C241.579 10.7387 240.633 10.9896 239.893 11.4886C239.154 11.9877 238.602 12.6968 238.245 13.6248C237.886 14.5469 237.705 15.6529 237.705 16.9398V16.9397ZM19.7782 34.0571C19.1763 34.1155 17.8439 34.0805 17.2157 34.0805C12.4618 34.0805 8.37707 32.5778 5.02855 29.254C1.67718 25.9332 0 21.7487 0 17.036V0.000245111L2.88676 0.00890984L2.86928 16.9835C2.86345 21.6932 4.16367 25.1833 7.51505 28.5041C10.6735 31.6352 15.3718 33.8792 19.781 34.0571H19.7782ZM250 16.9397C250 18.1565 249.845 19.2624 249.535 20.2604C249.226 21.2555 248.77 22.1106 248.159 22.8255C247.551 23.5433 246.795 24.0948 245.886 24.4829C244.977 24.8681 243.917 25.0635 242.701 25.0635C241.486 25.0635 240.387 24.868 239.47 24.4829C238.552 24.0919 237.795 23.5374 237.19 22.8225C236.586 22.1018 236.133 21.241 235.835 20.24C235.537 19.239 235.385 18.1331 235.385 16.9191C235.385 15.3025 235.653 13.8814 236.182 12.6704C236.717 11.4536 237.526 10.5081 238.616 9.83704C239.706 9.16584 241.076 8.83025 242.727 8.83025C244.378 8.83025 245.661 9.16584 246.739 9.83419C247.817 10.5024 248.632 11.4449 249.176 12.6531C249.725 13.867 249.997 15.2967 249.997 16.9397H250ZM32.1551 0.0264979C33.9666 0.0264979 34.1565 0.11405 34.1565 1.8007V16.9632C34.1565 19.5164 33.5196 21.8889 32.2456 24.0745C30.9717 26.2602 29.2303 27.9847 27.0243 29.2483C24.8182 30.5118 22.4252 31.142 19.8481 31.142C17.2709 31.142 14.8781 30.5118 12.672 29.2483C10.466 27.9848 8.89698 26.2602 7.62304 24.0745C6.3491 21.8889 5.7559 19.5194 5.7559 16.9632L5.75888 0.00309024C11.8978 0.000245111 24.9789 -0.00854894 32.1551 0.0264979ZM230.087 24.8214H227.432L219.271 11.9176H219.183C219.207 12.3029 219.23 12.7289 219.259 13.1927C219.289 13.6568 219.312 14.1412 219.329 14.646C219.347 15.1537 219.359 15.6644 219.367 16.1839V24.8243L217.34 24.8244V9.06963H219.972L228.104 21.912H228.182C228.168 21.5969 228.15 21.203 228.127 20.7361C228.104 20.2692 228.086 19.776 228.069 19.2537C228.051 18.7342 228.039 18.241 228.039 17.7742V9.06665L230.091 9.06678V24.8185L230.087 24.8214ZM208.664 18.2295L207.005 13.616C206.958 13.4584 206.879 13.222 206.774 12.9098C206.672 12.5946 206.567 12.2708 206.461 11.9352C206.359 11.5966 206.275 11.3223 206.21 11.1005C206.137 11.3924 206.055 11.6988 205.959 12.0227C205.866 12.3495 205.775 12.6501 205.684 12.9332C205.597 13.2161 205.524 13.4409 205.462 13.613L203.779 18.2266H208.664V18.2295ZM211.028 24.8214L209.284 20.1437L203.104 20.1438L201.377 24.8214H199.081L205.1 9.06963H207.364L213.351 24.8214H211.028ZM187.136 17.5203V22.9596L190.143 22.9597C191.446 22.9597 192.363 22.7058 192.901 22.1951C193.436 21.6874 193.705 21.0017 193.705 20.1408C193.705 19.5922 193.582 19.1252 193.345 18.7373C193.103 18.3433 192.711 18.0456 192.174 17.8355C191.633 17.6255 190.908 17.5233 189.994 17.5233H187.136V17.5203ZM187.136 15.6994H189.886C191.16 15.6994 192.039 15.4893 192.53 15.0749C193.015 14.6548 193.263 14.0507 193.263 13.2512C193.263 12.4517 192.971 11.833 192.39 11.4683C191.805 11.1035 190.879 10.9256 189.617 10.9256H187.136V15.7024V15.6994ZM184.924 9.06963H189.497C191.504 9.06963 193.018 9.36436 194.029 9.95084C195.04 10.5431 195.548 11.5499 195.548 12.9799C195.548 13.5898 195.437 14.1382 195.215 14.6198C194.993 15.1013 194.669 15.4982 194.242 15.8132C193.819 16.1285 193.298 16.3473 192.682 16.4612V16.5662C193.325 16.6741 193.903 16.8667 194.406 17.1468C194.911 17.4299 195.309 17.8238 195.598 18.3375C195.887 18.8511 196.036 19.5105 196.036 20.3159C196.036 21.276 195.808 22.0931 195.355 22.7643C194.902 23.4383 194.263 23.9432 193.43 24.2933C192.603 24.6435 191.615 24.8156 190.47 24.8156L184.927 24.8155V9.06963H184.924ZM173.401 10.946H171.405V16.5369H173.55C174.794 16.5369 175.703 16.2948 176.279 15.8074C176.851 15.323 177.141 14.6051 177.141 13.6568C177.141 12.7084 176.834 11.9759 176.223 11.5616C175.612 11.1501 174.674 10.943 173.401 10.943V10.946ZM173.541 9.06963C174.87 9.06963 175.972 9.23012 176.837 9.55989C177.702 9.88657 178.35 10.3827 178.774 11.048C179.198 11.7134 179.411 12.5567 179.411 13.5752C179.411 14.3806 179.265 15.0576 178.97 15.612C178.672 16.1636 178.286 16.6158 177.81 16.9689C177.33 17.3219 176.819 17.5992 176.27 17.8006L180.679 24.8214H178.146L174.306 18.3811L171.405 18.3812V24.8214H169.193V9.06963H173.541ZM163.238 9.06963V19.28C163.238 20.386 163.01 21.3752 162.555 22.2476C162.099 23.1202 161.409 23.806 160.489 24.3107C159.569 24.8155 158.409 25.0635 157.018 25.0635C155.037 25.0635 153.532 24.5354 152.492 23.4704C151.449 22.4081 150.931 20.9958 150.931 19.2362L150.932 9.06963H153.155V19.1516C153.155 20.4822 153.485 21.4862 154.151 22.1631C154.815 22.8401 155.805 23.1786 157.123 23.1786C158.029 23.1786 158.768 23.0181 159.343 22.6912C159.922 22.3644 160.346 21.8976 160.623 21.2993C160.898 20.6952 161.035 19.9832 161.035 19.1545V9.06963H163.238ZM127.749 16.9397C127.749 18.2236 127.931 19.3296 128.284 20.2604C128.641 21.1943 129.187 21.912 129.926 22.4199C130.663 22.9276 131.601 23.1815 132.746 23.1815C133.891 23.1815 134.847 22.9276 135.58 22.4199C136.313 21.912 136.854 21.1942 137.199 20.2604C137.541 19.3297 137.713 18.2236 137.713 16.9397C137.713 14.9991 137.319 13.4788 136.527 12.3816C135.735 11.2873 134.485 10.7387 132.772 10.7387C131.624 10.7387 130.677 10.9896 129.938 11.4886C129.199 11.9877 128.646 12.6968 128.29 13.6248C127.928 14.5469 127.749 15.6529 127.749 16.9398V16.9397ZM140.048 16.9397C140.048 18.1565 139.893 19.2624 139.583 20.2604C139.273 21.2555 138.817 22.1106 138.207 22.8255C137.599 23.5433 136.842 24.0948 135.931 24.4829C135.022 24.8681 133.961 25.0635 132.746 25.0635C131.53 25.0635 130.432 24.868 129.514 24.4829C128.597 24.0919 127.84 23.5374 127.235 22.8225C126.63 22.1018 126.177 21.241 125.879 20.24C125.581 19.239 125.429 18.1331 125.429 16.9191C125.429 15.3025 125.698 13.8814 126.227 12.6704C126.762 11.4536 127.571 10.5081 128.661 9.83704C129.751 9.16584 131.121 8.83025 132.772 8.83025C134.423 8.83025 135.705 9.16584 136.784 9.83419C137.862 10.5024 138.677 11.4449 139.22 12.6531C139.77 13.867 140.041 15.2967 140.041 16.9397H140.048ZM118.581 16.8609C118.581 15.5069 118.359 14.3952 117.92 13.5197C117.482 12.6441 116.839 11.9935 115.992 11.5645C115.142 11.1386 114.104 10.9256 112.874 10.9256H110.449V22.9481H112.489C114.519 22.9481 116.044 22.4374 117.061 21.4189C118.075 20.4005 118.581 18.8773 118.581 16.8639L118.581 16.8609ZM120.901 16.7938C120.901 18.565 120.573 20.0474 119.919 21.238C119.264 22.4257 118.318 23.3186 117.076 23.9168C115.834 24.5149 114.332 24.8185 112.562 24.8185H108.237V9.06963H113.05C114.66 9.06963 116.05 9.36435 117.225 9.948C118.397 10.5316 119.302 11.3953 119.942 12.5421C120.582 13.6888 120.903 15.1042 120.903 16.7908L120.901 16.7938ZM99.5594 18.2295L97.8998 13.616C97.8531 13.4584 97.7741 13.222 97.6689 12.9098C97.5668 12.5946 97.4615 12.2708 97.3563 11.9352C97.254 11.5966 97.1693 11.3223 97.1051 11.1005C97.0321 11.3924 96.9502 11.6988 96.8539 12.0227C96.7603 12.3495 96.6698 12.6501 96.5763 12.9332C96.4886 13.2161 96.4156 13.4409 96.3542 13.613L94.6712 18.2266H99.5565L99.5594 18.2295ZM101.923 24.8214L100.179 20.1437L93.9991 20.1438L92.2722 24.8214H89.9757L95.9947 9.06963H98.2591L104.246 24.8214H101.923ZM80.7397 16.4173H86.4344V24.2116C85.6104 24.4917 84.7542 24.7045 83.8777 24.8477C83.0012 24.9906 82.0136 25.0635 80.9207 25.0635C79.2963 25.0635 77.9288 24.7397 76.8127 24.0918C75.6965 23.4412 74.8521 22.516 74.2737 21.305C73.6951 20.091 73.4058 18.6379 73.4058 16.9367C73.4058 15.2354 73.7272 13.8785 74.3672 12.6617C75.007 11.4449 75.9392 10.4994 77.1604 9.83109C78.3818 9.16287 79.8545 8.82727 81.5811 8.82727C82.4432 8.82727 83.273 8.909 84.0648 9.07532C84.8596 9.24163 85.5929 9.47221 86.2592 9.76694L85.4643 11.6317C84.9004 11.3778 84.2839 11.1648 83.6002 10.9867C82.9224 10.8146 82.2211 10.727 81.4936 10.727C80.2811 10.727 79.2468 10.9809 78.3788 11.4916C77.5139 12.0052 76.8478 12.7259 76.3832 13.6568C75.9186 14.5848 75.6879 15.6849 75.6879 16.9629C75.6879 18.2409 75.8836 19.3003 76.2722 20.2282C76.658 21.1591 77.2657 21.8828 78.0955 22.4052C78.9194 22.9217 79.983 23.1814 81.2862 23.1814C81.9407 23.1814 82.5017 23.1463 82.9605 23.0762C83.4251 23.0034 83.8517 22.9187 84.2403 22.8165V18.3489L80.7309 18.3492V16.4231L80.7397 16.4173ZM68.8828 24.8214H60.0296V9.06963H68.8828V10.9664H62.2413V15.6441H68.4854V17.5204L62.2413 17.5203V22.9129H68.8828V24.8214ZM46.4049 24.8214V9.06963H48.6167V22.9014H55.4657V24.8214H46.4049Z" fill="black"/>
</g>
</svg>
