<svg preserveAspectRatio="none" overflow="visible" style="display: block;" width="16" height="14.3261" viewBox="0 0 16 14.3261" fill="none" xmlns="http://www.w3.org/2000/svg">
<g id="Group">
<path id="Vector" fill-rule="evenodd" clip-rule="evenodd" d="M12.3333 13.031H3.66667V14.3261H0V8.36171C0 7.80636 0.259183 7.30997 0.666662 6.97938V1.49817L15.3333 0V6.97938C15.7409 7.30997 16 7.80636 16 8.36171V14.3261H12.3333V13.031ZM1.99999 6.56066H2.99998V5.65304C2.99998 5.08526 3.47866 4.62071 4.06425 4.62071H7.26906C7.55149 4.62071 7.80877 4.72957 7.99973 4.90548C8.19069 4.72957 8.44831 4.62071 8.73094 4.62071H11.9357C12.5214 4.62071 13 5.08526 13 5.65304V6.56066H14V1.44076L1.99999 2.65929V6.56066ZM8.33334 5.65304V6.56066H12.3333V5.65304C12.3333 5.44374 12.1512 5.26732 11.9357 5.26732H8.73094C8.51543 5.26732 8.33334 5.44089 8.33334 5.65304ZM3.66667 6.56066H7.66666V5.65304C7.66666 5.44089 7.48397 5.26732 7.26906 5.26732H4.06425C3.84934 5.26732 3.66667 5.44426 3.66667 5.65304V6.56066ZM1.33332 13.0328H2.33332V12.061H13.6667V13.0328H14.6667V8.36171C14.6667 8.08102 14.4331 7.85393 14.1437 7.85393H1.85625C1.56693 7.85393 1.33332 8.08128 1.33332 8.36171V13.0328Z" fill="#5D5FEF"/>
</g>
</svg>
