<svg preserveAspectRatio="none" overflow="visible" style="display: block;" width="15.0001" height="30.2068" viewBox="0 0 15.0001 30.2068" fill="none" xmlns="http://www.w3.org/2000/svg">
<g id="_2396805998144">
<path id="Vector" d="M0.547031 24.0864C-0.148344 24.3372 -0.198014 25.2904 0.497361 25.6416L3.17952 26.8958C3.3782 26.9962 3.62655 26.9962 3.82523 26.8958L10.1829 24.5379V20.5244L0.547031 24.0864Z" fill="#FF5500"/>
<path id="Vector_2" d="M7.59892 27.3973C6.90354 27.6481 6.85387 28.6515 7.54925 28.9525L10.1817 30.2068V26.4441L7.59892 27.3973Z" fill="#FF5500"/>
<path id="Vector_3" d="M15 6.67779C15 2.91512 11.9205 -0.145183 8.19525 0.005324C4.76805 0.155831 1.98654 2.96529 1.8872 6.42695C1.78787 9.58759 3.87399 12.2967 6.70516 13.0492V15.959L0.595793 18.2166C-0.0995825 18.4675 -0.149252 19.4709 0.496454 19.7719L3.22829 21.0261C3.42696 21.1264 3.62564 21.1264 3.87399 21.0261L10.182 18.6682V13.0492C12.9635 12.2967 15 9.68793 15 6.62762V6.67779ZM8.4436 9.78827C6.75483 9.78827 5.36408 8.38354 5.36408 6.67779C5.36408 4.97205 6.75483 3.56732 8.4436 3.56732C10.1324 3.56732 11.5231 4.97205 11.5231 6.67779C11.5231 8.38354 10.1324 9.78827 8.4436 9.78827Z" fill="#FF5500"/>
</g>
</svg>
