<svg xmlns="http://www.w3.org/2000/svg" width="98" height="98" fill="none" viewBox="0 0 98 98"><g stroke="#1cd9a4"><circle cx="48.57" cy="48.57" r="48.07" fill="#fff"/><path fill="#25d366" stroke-width=".684" d="M48.695 21.41c7.242 0 14.021 2.801 19.114 7.894h.001c5.118 5.094 7.918 11.853 7.918 19.045 0 14.842-12.139 26.915-27.033 26.915h-.03a27 27 0 0 1-12.91-3.28l-.119-.065-.13.034-13.95 3.64 3.73-13.56.038-.138-.071-.124a26.75 26.75 0 0 1-3.62-13.445c.024-14.843 12.14-26.916 27.062-26.916Zm0 3.914c-12.755 0-23.103 10.32-23.128 23v.001c0 4.344 1.245 8.587 3.551 12.233v.001l.455.728-2.257 8.213-.156.57.572-.15 8.462-2.211.71.44.006.003a23.26 23.26 0 0 0 11.756 3.198h.03c12.726 0 23.098-10.32 23.098-23a22.87 22.87 0 0 0-6.75-16.276h-.001a23.04 23.04 0 0 0-16.348-6.75Zm-9.707 10.755q.35 0 .674.003l.626.02c.065.004.13.004.184.003.058 0 .106 0 .155.002.093.005.172.02.25.056.134.062.332.22.558.684l.099.22c.555 1.357 1.931 4.722 2.11 5.08.153.305.22.564.052.885l-.003.007c-.226.453-.33.699-.639 1.052-.365.422-.7.871-1.01 1.18l-.001.002c-.162.164-.39.392-.498.694-.12.332-.083.7.15 1.109h.001c.376.654 1.643 2.685 3.502 4.453l.38.35c2.664 2.364 4.929 3.1 5.575 3.425l.002.001c.363.18.704.288 1.037.25.349-.04.621-.232.86-.5h.002c.388-.437 1.727-2 2.181-2.709.192-.278.345-.34.468-.354.16-.018.356.035.67.148l.004.002c.294.102 1.266.561 2.283 1.053 1.01.489 2.01.983 2.372 1.16l.07.033h.003c.321.159.56.268.755.375.201.11.288.185.326.24q.005.013.017.058.016.075.027.202a4 4 0 0 1-.01.676 8.3 8.3 0 0 1-.453 2.019c-.254.686-.999 1.394-1.899 1.968-.78.497-1.614.854-2.209.995l-.24.047c-1.149.167-2.58.235-4.15-.258a38 38 0 0 1-3.879-1.43h-.002c-6.77-2.892-11.182-9.692-11.55-10.164-.178-.24-.86-1.138-1.5-2.386-.648-1.264-1.239-2.858-1.239-4.467 0-3.207 1.695-4.753 2.309-5.446.562-.597 1.195-.738 1.58-.738Z"/></g></svg>