<svg preserveAspectRatio="none" overflow="visible" style="display: block;" width="46.9729" height="14.9693" viewBox="0 0 46.9729 14.9693" fill="none" xmlns="http://www.w3.org/2000/svg">
<g id="Goggl" clip-path="url(#clip0_0_19)">
<path id="Vector" d="M5.86526 5.10829V6.64265H9.59771C9.48345 7.50338 9.19145 8.13334 8.74712 8.57619C8.20121 9.11259 7.35062 9.69889 5.86526 9.69889C3.5674 9.69889 1.77101 7.87762 1.77101 5.61974C1.77101 3.36187 3.5674 1.5406 5.86526 1.5406C7.10306 1.5406 8.01078 2.02086 8.67729 2.63835L9.77544 1.55931C8.84868 0.673621 7.60453 0 5.86526 0C2.71681 0 0.0698246 2.51984 0.0698246 5.6135C0.0698246 8.70717 2.71681 11.227 5.86526 11.227C7.56645 11.227 8.84868 10.6781 9.85161 9.65523C10.8799 8.6448 11.2037 7.21647 11.2037 6.06882C11.2037 5.7133 11.1783 5.38273 11.1212 5.10829H5.86526Z" fill="#4285F4"/>
<path id="Vector_2" d="M15.8692 3.86084C13.8316 3.86084 12.1685 5.38273 12.1685 7.48467C12.1685 9.56791 13.8316 11.1085 15.8692 11.1085C17.9068 11.1085 19.5699 9.57414 19.5699 7.48467C19.5699 5.38273 17.9068 3.86084 15.8692 3.86084ZM15.8692 9.68018C14.752 9.68018 13.7872 8.77578 13.7872 7.48467C13.7872 6.18109 14.752 5.28917 15.8692 5.28917C16.9864 5.28917 17.9513 6.18109 17.9513 7.48467C17.9513 8.77578 16.9864 9.68018 15.8692 9.68018Z" fill="#EA4335"/>
<path id="Vector_3" d="M34.0109 4.67168H33.9538C33.592 4.24755 32.8937 3.86084 32.0114 3.86084C30.1706 3.86084 28.5646 5.43886 28.5646 7.48467C28.5646 9.51801 30.1706 11.1085 32.0114 11.1085C32.8937 11.1085 33.592 10.7218 33.9538 10.2852H34.0109V10.7904C34.0109 12.1751 33.2555 12.9173 32.0431 12.9173C31.0529 12.9173 30.4372 12.2187 30.1833 11.6262L28.7741 12.2C29.1803 13.1605 30.2531 14.3394 32.0431 14.3394C33.9411 14.3394 35.5471 13.2416 35.5471 10.5659V4.04796H34.0109V4.67168ZM32.151 9.68018C31.0339 9.68018 30.1833 8.74459 30.1833 7.48467C30.1833 6.20604 31.0339 5.28917 32.151 5.28917C33.2555 5.28917 34.1188 6.22475 34.1188 7.49715C34.1252 8.7633 33.2555 9.68018 32.151 9.68018Z" fill="#4285F4"/>
<path id="Vector_4" d="M24.1212 3.86084C22.0836 3.86084 20.4205 5.38273 20.4205 7.48467C20.4205 9.56791 22.0836 11.1085 24.1212 11.1085C26.1588 11.1085 27.8219 9.57414 27.8219 7.48467C27.8219 5.38273 26.1588 3.86084 24.1212 3.86084ZM24.1212 9.68018C23.004 9.68018 22.0392 8.77578 22.0392 7.48467C22.0392 6.18109 23.004 5.28917 24.1212 5.28917C25.2384 5.28917 26.2033 6.18109 26.2033 7.48467C26.2033 8.77578 25.2384 9.68018 24.1212 9.68018Z" fill="#FBBC05"/>
<path id="Vector_5" d="M36.8166 0.149693H38.4099V11.1085H36.8166V0.149693Z" fill="#34A853"/>
<path id="Vector_6" d="M43.3293 9.68018C42.5041 9.68018 41.9201 9.31218 41.5393 8.58243L46.4714 6.58028L46.3064 6.16862C46.0017 5.35778 45.0622 3.86084 43.1516 3.86084C41.2536 3.86084 39.6731 5.32659 39.6731 7.48467C39.6731 9.51801 41.2346 11.1085 43.3293 11.1085C45.0178 11.1085 45.9954 10.0918 46.4016 9.50553L45.1448 8.68222C44.7258 9.28099 44.1545 9.68018 43.3293 9.68018ZM43.2151 5.22056C43.8689 5.22056 44.4275 5.55113 44.6116 6.01892L41.279 7.3724C41.279 5.85052 42.3772 5.22056 43.2151 5.22056Z" fill="#EA4335"/>
</g>
<defs>
<clipPath id="clip0_0_19">
<rect width="46.9729" height="14.9693" fill="white"/>
</clipPath>
</defs>
</svg>
